HIERARCHY
ROOT Hips
{
	OFFSET 0.00000 0.00000 0.00000
	CHANNELS 6 Xposition Yposition Zposition Zrotation Yrotation Xrotation 
	JOINT LHipJoint
	{
		OFFSET 0 0 0
		CHANNELS 3 Zrotation Yrotation Xrotation
		JOINT LeftHip
		{
			OFFSET 1.64577 -1.42384 0.94276
			CHANNELS 3 Zrotation Yrotation Xrotation
			JOINT LeftKnee
			{
				OFFSET 2.11538 -5.81197 0.00000
				CHANNELS 3 Zrotation Yrotation Xrotation
				JOINT LeftAnkle
				{
					OFFSET 2.36541 -6.49893 0.00000
					CHANNELS 3 Zrotation Yrotation Xrotation
					JOINT LeftToe
					{
						OFFSET 0.17759 -0.48793 1.73865
						CHANNELS 3 Zrotation Yrotation Xrotation
						End Site
						{
							OFFSET 0.00000 -0.00000 0.91205
						}
					}
				}
			}
		}
	}
	JOINT RHipJoint
	{
		OFFSET 0 0 0
		CHANNELS 3 Zrotation Yrotation Xrotation
		JOINT RightHip
		{
			OFFSET -1.43750 -1.42384 0.94276
			CHANNELS 3 Zrotation Yrotation Xrotation
			JOINT RightKnee
			{
				OFFSET -2.10480 -5.78291 0.00000
				CHANNELS 3 Zrotation Yrotation Xrotation
				JOINT RightAnkle
				{
					OFFSET -2.34880 -6.45329 0.00000
					CHANNELS 3 Zrotation Yrotation Xrotation
					JOINT RightToe
					{
						OFFSET -0.22842 -0.62757 1.80469
						CHANNELS 3 Zrotation Yrotation Xrotation
						End Site
						{
							OFFSET -0.00000 -0.00000 0.95886
						}
					}
				}
			}
		}
	}
	JOINT lowerback
	{
		OFFSET 0 0 0
		CHANNELS 3 Zrotation Yrotation Xrotation
		JOINT Chest
		{
			OFFSET 0.06217 1.93758 -0.49272
			CHANNELS 3 Zrotation Yrotation Xrotation
			JOINT Chest2
			{
				OFFSET -0.03114 2.03621 -0.05830
				CHANNELS 3 Zrotation Yrotation Xrotation
				JOINT lowerneck
				{
					OFFSET 0 0 0
					CHANNELS 3 Zrotation Yrotation Xrotation
					JOINT Neck
					{
						OFFSET 0.04421 1.41010 0.26562
						CHANNELS 3 Zrotation Yrotation Xrotation
						JOINT Head
						{
							OFFSET -0.13407 1.43847 0.06181
							CHANNELS 3 Zrotation Yrotation Xrotation
							End Site
							{
								OFFSET -0.04980 1.45844 -0.00689
							}
						}
					}
				}
				JOINT LeftCollar
				{
					OFFSET 0 0 0
					CHANNELS 3 Zrotation Yrotation Xrotation
					JOINT LeftShoulder
					{
						OFFSET 2.18382 1.47753 -0.35694
CHANNELS 3 Zrotation Xrotation Yrotation
						JOINT LeftElbow
						{
OFFSET 0 -5.054600 0.000000
CHANNELS 3 Zrotation Xrotation Yrotation
							JOINT LeftWrist
							{
OFFSET 0 -3.390130 0.000000
CHANNELS 3 Zrotation Xrotation Yrotation
								JOINT lhand
								{
									OFFSET 0 0 0
CHANNELS 3 Zrotation Xrotation Yrotation
									JOINT LFingers
									{
OFFSET 0 -0.572420 -0.000000
CHANNELS 3 Zrotation Xrotation Yrotation
										End Site
										{
OFFSET 0 -0.461500 -0.000000
										}
									}
								}
								JOINT LThumb
								{
OFFSET 0 0.000000 0.000000
CHANNELS 3 Zrotation Xrotation Yrotation
									End Site
									{
OFFSET 0 -0.468550 0.468550
									}
								}
							}
						}
					}
				}
				JOINT RightCollar
				{
					OFFSET 0 0 0
					CHANNELS 3 Zrotation Yrotation Xrotation
					JOINT RightShoulder
					{
						OFFSET -2.06033 1.72839 -0.47437
CHANNELS 3 Zrotation Xrotation Yrotation
						JOINT RightElbow
						{
OFFSET 0 -5.070100 0.000000
CHANNELS 3 Zrotation Xrotation Yrotation
							JOINT RightWrist
							{
OFFSET 0 -3.149570 -0.000000
CHANNELS 3 Zrotation Xrotation Yrotation
								JOINT rhand
								{
									OFFSET 0 0 0
CHANNELS 3 Zrotation Xrotation Yrotation
									JOINT RFingers
									{
OFFSET 0 -0.718190 -0.000000
CHANNELS 3 Zrotation Xrotation Yrotation
										End Site
										{
OFFSET 0 -0.579020 -0.000000
										}
									}
								}
								JOINT RThumb
								{
OFFSET 0 0.000000 0.000000
CHANNELS 3 Zrotation Xrotation Yrotation
									End Site
									{
OFFSET 0 -0.587860 0.587860
									}
								}
							}
						}
					}
				}
			}
		}
	}
}
MOTION
Frames: 5
Frame Time: 0.008333333333333333
42.783959 13.962068 3.126804 559.726382 58.652428 547.375891 0.000000 0.000000 0.000000 -12.483293 -21.854247 -23.861389 11.216586 18.038827 63.482096 1.546800 3.892765 -25.163175 0.020971 0.932499 2.563178 0.000000 0.000000 0.000000 20.526284 23.817572 -27.864125 -7.879634 -16.006112 52.088627 -0.483579 -1.344436 -13.718910 -5.905475 14.331398 -44.592239 -0.822091 0.512184 19.612638 -1.716920 1.780588 11.076441 -1.666402 1.442539 1.021659 8.247240 7.510677 -7.117483 -11.632075 9.588248 -2.767443 -4.445455 4.675061 1.323674 0.000000 0.000000 0.000000 7.688546 19.306055 -30.916801 102.914800 -59.360244 71.160520 33.950280 -20.380723 -9.262071 0.000000 0.000000 0.000000 -7.125000 0.000000 0.000000 6.228839 41.023009 0.613443 0.000000 0.000000 0.000000 -11.373453 17.980736 49.778831 -109.357701 -58.535503 -76.681849 -38.107033 -33.737193 -10.572114 0.000000 0.000000 0.000000 7.125000 0.000000 0.000000 -7.666556 16.711696 -5.185170
43.023951 13.944452 3.155702 559.678831 57.422944 547.945265 0.000000 0.000000 0.000000 -11.772398 -23.003370 -24.007571 11.479870 18.161164 64.329276 1.709504 3.514276 -26.163921 0.014520 0.767503 2.109417 0.000000 0.000000 0.000000 19.757287 26.890109 -26.409399 -6.753252 -15.104865 47.906571 -0.521576 -0.163057 -13.709716 -6.284410 14.697260 -46.110640 -0.592155 0.394026 19.318705 -1.566099 1.663476 11.051727 -1.606559 1.386467 1.138353 9.364884 8.158861 -6.015246 -13.161336 10.414525 -3.838489 -5.093584 5.126650 1.068340 0.000000 0.000000 0.000000 7.279342 19.068014 -30.521060 103.134058 -59.337812 71.349152 34.203310 -20.596795 -9.248905 0.000000 0.000000 0.000000 -7.125000 0.000000 0.000000 6.455423 41.033640 0.634542 0.000000 0.000000 0.000000 -10.858557 17.985638 49.546447 -109.070040 -58.580257 -76.436418 -38.160536 -33.500669 -10.541432 0.000000 0.000000 0.000000 7.125000 0.000000 0.000000 -7.707624 16.740993 -5.208541
43.257885 13.917661 3.186842 560.075753 56.089610 548.673546 0.000000 0.000000 0.000000 -10.786055 -24.084111 -24.067339 11.779226 18.295036 65.286424 1.880442 3.050562 -27.144469 0.006798 0.504469 1.386252 0.000000 0.000000 0.000000 19.629938 29.413053 -24.767001 -5.886204 -14.310352 44.510145 -0.536923 0.321303 -13.736539 -6.415544 14.818779 -46.626692 -0.021729 0.255925 19.179777 -1.364402 1.582078 11.050788 -1.696602 1.367334 1.209263 10.538399 8.805048 -4.819656 -14.683588 11.254869 -4.856673 -5.756374 5.596022 0.843442 0.000000 0.000000 0.000000 7.007366 18.894539 -30.298891 103.601129 -59.288944 71.750768 34.382886 -20.930161 -9.126407 0.000000 0.000000 0.000000 -7.125000 0.000000 0.000000 6.613921 40.906418 0.671084 0.000000 0.000000 0.000000 -10.349263 18.049790 49.307277 -108.931812 -58.601463 -76.318475 -38.159992 -33.188737 -10.609787 0.000000 0.000000 0.000000 7.125000 0.000000 0.000000 -7.696967 16.656565 -5.215481
43.483685 13.886016 3.220457 560.849342 54.628203 549.394190 0.000000 0.000000 0.000000 -9.595485 -25.098339 -23.889980 12.087324 18.426941 66.264857 2.049021 2.536275 -28.053464 0.001092 0.142087 0.390255 0.000000 0.000000 0.000000 20.264583 30.980164 -23.012943 -5.287359 -13.698628 42.046482 -0.545336 0.318684 -13.846329 -6.183371 14.601289 -45.708781 0.897111 0.084791 19.297355 -1.116141 1.530850 11.091709 -1.946620 1.386715 1.203805 11.744309 9.452487 -3.622277 -16.180426 12.120077 -5.748393 -6.417811 6.083437 0.684723 0.000000 0.000000 0.000000 6.909404 18.775460 -30.298521 104.232388 -59.220326 72.293270 34.515872 -21.279030 -8.969135 0.000000 0.000000 0.000000 -7.125000 0.000000 0.000000 6.729316 40.732482 0.711805 0.000000 0.000000 0.000000 -9.832310 18.178003 49.050502 -108.962415 -58.596796 -76.344582 -38.127385 -32.850174 -10.716035 0.000000 0.000000 0.000000 7.125000 0.000000 0.000000 -7.658669 16.530566 -5.210248
43.699057 13.855880 3.255511 561.998377 53.087229 550.091219 0.000000 0.000000 0.000000 -8.213631 -26.021472 -23.420683 12.375918 18.545031 67.175564 2.208726 1.982842 -28.863489 0.002007 -0.278823 -0.765970 0.000000 0.000000 0.000000 21.698589 31.343471 -21.332557 -4.922539 -13.295930 40.486778 -0.551962 0.172773 -13.979976 -5.687008 14.117492 -43.711062 2.171429 -0.116770 19.703909 -0.822350 1.525471 11.165518 -2.364995 1.452877 1.099702 12.931779 10.104077 -2.485539 -17.616155 13.018168 -6.481966 -7.052433 6.589109 0.607283 0.000000 0.000000 0.000000 6.985747 18.714918 -30.517945 104.913491 -59.142676 72.878280 34.635634 -21.510419 -8.871972 0.000000 0.000000 0.000000 -7.125000 0.000000 0.000000 6.833638 40.628546 0.740522 0.000000 0.000000 0.000000 -9.311680 18.353706 48.790569 -109.136965 -58.569970 -76.493500 -38.083408 -32.529375 -10.799713 0.000000 0.000000 0.000000 7.125000 0.000000 0.000000 -7.616180 16.434446 -5.196903
